<?xml version="1.0" encoding="UTF-8" standalone="no"?>
<svg
   xmlns:dc="http://purl.org/dc/elements/1.1/"
   xmlns:cc="http://creativecommons.org/ns#"
   xmlns:rdf="http://www.w3.org/1999/02/22-rdf-syntax-ns#"
   xmlns:svg="http://www.w3.org/2000/svg"
   xmlns="http://www.w3.org/2000/svg"
   id="svg3336"
   version="1.1"
   viewBox="0 0 200 200"
   height="200pt"
   width="200pt">
  <metadata
     id="metadata3356">
    <rdf:RDF>
      <cc:Work
         rdf:about="">
        <dc:format>image/svg+xml</dc:format>
        <dc:type
           rdf:resource="http://purl.org/dc/dcmitype/StillImage" />
        <dc:title></dc:title>
      </cc:Work>
    </rdf:RDF>
  </metadata>
  <defs
     id="defs3354" />
  <path
     style="fill:#ffffff"
     id="path3338"
     d="M 0,0 200,0 200,200 0,200 0,0 Z" />
  <path
     style="fill:#55acee"
     id="path3340"
     d="m 51.77,23.78 c 0.52,-2.56 2.17,-5.22 5.11,-5.14 11.71,-0.18 23.43,0 35.15,-0.08 C 92.02,20.33 92.01,22.1 92,23.87 78.59,23.72 65.18,23.89 51.77,23.78 Z" />
  <path
     style="fill:#55acee"
     id="path3342"
     d="m 97.14,18.57 c 8.28,0.08 16.56,-0.14 24.83,0.09 2.83,0.01 4.1,2.92 5.02,5.12 -10.01,0.07 -20.01,0.01 -30.02,0.04 0.06,-1.75 0.12,-3.5 0.17,-5.25 z" />
  <path
     style="fill:#55acee"
     id="path3344"
     d="m 52.23,29.34 c 5.65,-0.01 11.3,0.02 16.95,-0.03 -1.73,8.65 -8.89,14.85 -16.11,19.19 -0.33,-6.38 -0.6,-12.77 -0.84,-19.16 z" />
  <path
     style="fill:#55acee"
     id="path3346"
     d="m 74.27,29.32 c 5.86,0.04 11.72,0.02 17.58,0.01 -1.75,49.24 -3.16,98.5 -4.92,147.74 -0.16,2.41 -2.45,4.33 -4.84,4.3 -6.36,0.13 -12.73,0.05 -19.09,0.04 -3.04,0.32 -5.67,-2.42 -5.52,-5.4 C 55.92,135.44 54.79,94.86 53.01,54.31 62.82,49.13 72.47,40.86 74.27,29.32 Z" />
  <path
     style="fill:#55acee"
     id="path3348"
     d="m 96.97,29.32 c 7.28,0.02 14.56,0.06 21.85,-0.03 3.03,8.47 9.17,15.6 17.04,19.95 3.79,10.81 7.69,21.58 11.44,32.4 1.61,4.25 0.51,9.56 -3.43,12.14 -16.8,12.77 -33.56,25.61 -50.43,38.32 0.75,-11.65 0.48,-23.34 1.31,-34.98 5.02,-5.88 11.54,-10.48 16.96,-16.06 -5.2,-7.35 -10.43,-14.69 -15.7,-21.99 -0.07,-9.92 0.6,-19.84 0.96,-29.75 z" />
  <path
     style="fill:#55acee"
     id="path3350"
     d="m 124.31,29.37 c 1.48,-0.03 2.96,-0.06 4.44,-0.08 1.51,4.01 2.89,8.06 4.29,12.11 -3.73,-3.33 -6.76,-7.42 -8.73,-12.03 z" />
</svg>
